<svg xmlns="http://www.w3.org/2000/svg" viewBox="0 0 500 500" width="500" height="500">
  <!-- Background -->
  <rect width="500" height="500" fill="#f0f6ff" rx="20" ry="20"/>
  
  <!-- Doctor Body -->
  <rect x="200" y="150" width="100" height="200" fill="#4e74e6" rx="10" ry="10"/>
  
  <!-- Doctor Head -->
  <circle cx="250" cy="110" r="60" fill="#f5d5c4"/>
  
  <!-- Doctor Hair -->
  <path d="M190 110 Q250 30 310 110" fill="#333" stroke="#333" stroke-width="2"/>
  
  <!-- Doctor Face -->
  <circle cx="230" cy="100" r="5" fill="#333"/> <!-- Left eye -->
  <circle cx="270" cy="100" r="5" fill="#333"/> <!-- Right eye -->
  <path d="M235 130 Q250 140 265 130" fill="none" stroke="#333" stroke-width="2"/> <!-- Smile -->
  
  <!-- Doctor Lab Coat -->
  <rect x="190" y="170" width="120" height="180" fill="#fff" rx="10" ry="10"/>
  <path d="M250 170 L250 350" fill="none" stroke="#eee" stroke-width="2"/> <!-- Lab coat divide -->
  
  <!-- Stethoscope -->
  <path d="M220 200 Q200 220 220 240 L280 240 Q300 220 280 200" fill="none" stroke="#333" stroke-width="3"/>
  <circle cx="220" cy="240" r="8" fill="#4e74e6"/>
  
  <!-- Clipboard -->
  <rect x="300" y="220" width="50" height="70" fill="#fff" stroke="#333" stroke-width="2"/>
  <rect x="300" y="220" width="50" height="15" fill="#4e74e6" stroke="#333" stroke-width="2"/>
  <line x1="310" y1="250" x2="340" y2="250" stroke="#333" stroke-width="1"/>
  <line x1="310" y1="260" x2="340" y2="260" stroke="#333" stroke-width="1"/>
  <line x1="310" y1="270" x2="340" y2="270" stroke="#333" stroke-width="1"/>
  
  <!-- Doctor Arms -->
  <path d="M190 200 L160 250" fill="none" stroke="#f5d5c4" stroke-width="20" stroke-linecap="round"/>
  <path d="M310 200 L340 250" fill="none" stroke="#f5d5c4" stroke-width="20" stroke-linecap="round"/>
  
  <!-- Medical Symbol -->
  <circle cx="250" cy="210" r="15" fill="#fff" stroke="#4e74e6" stroke-width="2"/>
  <line x1="250" y1="195" x2="250" y2="225" stroke="#4e74e6" stroke-width="2"/>
  <line x1="235" y1="210" x2="265" y2="210" stroke="#4e74e6" stroke-width="2"/>
</svg> 